<?xml version="1.0" encoding="iso-8859-1"?>
<!-- Generator: Adobe Illustrator 19.0.0, SVG Export Plug-In . SVG Version: 6.00 Build 0)  -->
<svg version="1.1" id="Capa_1" xmlns="http://www.w3.org/2000/svg" xmlns:xlink="http://www.w3.org/1999/xlink" x="0px" y="0px"
	 viewBox="0 0 60 60" style="enable-background:new 0 0 60 60;" xml:space="preserve">
<g>
	<g>
		<path d="M49.362,33.068L31.01,25.931l-19.355,7.131c-0.519,0.191-0.783,0.766-0.593,1.284C11.211,34.75,11.593,35,12,35
			c0.115,0,0.231-0.02,0.346-0.062l18.645-6.869l17.647,6.863c0.513,0.2,1.095-0.055,1.294-0.57
			C50.132,33.848,49.877,33.268,49.362,33.068z"/>
		<path d="M37,19h2c0.553,0,1-0.448,1-1s-0.447-1-1-1h-2c-0.553,0-1,0.448-1,1S36.447,19,37,19z"/>
		<path d="M32,19h2c0.553,0,1-0.448,1-1s-0.447-1-1-1h-2c-0.553,0-1,0.448-1,1S31.447,19,32,19z"/>
		<path d="M42,19h2c0.553,0,1-0.448,1-1s-0.447-1-1-1h-2c-0.553,0-1,0.448-1,1S41.447,19,42,19z"/>
		<path d="M29,17h-2c-0.553,0-1,0.448-1,1s0.447,1,1,1h2c0.553,0,1-0.448,1-1S29.553,17,29,17z"/>
		<path d="M24,17h-2c-0.553,0-1,0.448-1,1s0.447,1,1,1h2c0.553,0,1-0.448,1-1S24.553,17,24,17z"/>
		<path d="M19,17h-2c-0.553,0-1,0.448-1,1s0.447,1,1,1h2c0.553,0,1-0.448,1-1S19.553,17,19,17z"/>
		<path d="M57,50h-9.612c9.824-10.442,8.658-18.787,8.6-19.156l-0.091-0.576L51,28.432V15.876C51,14.29,49.71,13,48.124,13H37V3.198
			C37,1.435,35.565,0,33.802,0h-5.604C26.435,0,25,1.435,25,3.198V13H13.876C12.29,13,11,14.29,11,15.876v12.556l-4.897,1.836
			l-0.091,0.576c-0.057,0.369-1.224,8.714,8.6,19.156H3c-0.553,0-1,0.448-1,1s0.447,1,1,1h13.597h5.25h18.307h5.25H57
			c0.553,0,1-0.448,1-1S57.553,50,57,50z M27,3.198C27,2.537,27.537,2,28.198,2h5.604C34.463,2,35,2.537,35,3.198V13h-8V3.198z
			 M13,15.876C13,15.393,13.393,15,13.876,15H25h12h11.124C48.607,15,49,15.393,49,15.876v11.806l-17.346-6.504
			c-0.422-0.159-0.887-0.159-1.309,0L13,27.682V15.876z M24.153,50l1.693-11.852C25.858,38.064,25.933,38,26.019,38h9.963
			c0.086,0,0.16,0.064,0.172,0.15L37.847,50H24.153z M39.867,50l-1.734-12.132C37.982,36.803,37.058,36,35.981,36h-9.963
			c-1.076,0-2.001,0.803-2.152,1.867L22.132,50h-4.727c-8.987-8.805-9.503-16.245-9.453-18.289L31,23.068l23.053,8.644
			c0.063,2.039-0.416,9.431-9.458,18.288H39.867z"/>
		<path d="M46,54H17c-0.553,0-1,0.448-1,1s0.447,1,1,1h29c0.553,0,1-0.448,1-1S46.553,54,46,54z"/>
		<path d="M38,58H24c-0.553,0-1,0.448-1,1s0.447,1,1,1h14c0.553,0,1-0.448,1-1S38.553,58,38,58z"/>
	</g>
</g>
<g>
</g>
<g>
</g>
<g>
</g>
<g>
</g>
<g>
</g>
<g>
</g>
<g>
</g>
<g>
</g>
<g>
</g>
<g>
</g>
<g>
</g>
<g>
</g>
<g>
</g>
<g>
</g>
<g>
</g>
</svg>
